    <svg version="1.1" viewBox="0 0 1600 344" width="100" height="100" xmlns="http://www.w3.org/2000/svg">
        <path transform="translate(0)" d="m0 0h1600v344h-1600v-344z" fill="#FDFDFD"/>
        <path transform="translate(663,55)" d="m0 0c7.17 9.77 0.32 30.1-1.38 41.4-0.34 2.33-0.69 4.67-1.04 7.01-3.82 25.4-7.77 50.9-11.7 76.3-0.33 2.09-0.66 4.19-0.98 6.29-0.21 1.36-0.43 2.72-0.64 4.08-0.1 0.67-0.2 1.33-0.31 2.01-0.71 4.55-1.42 9.1-2.14 13.6-0.37 2.38-0.74 4.75-1.11 7.12-0.17 1.08-0.34 2.15-0.52 3.26-0.15 0.99-0.3 1.97-0.46 2.99-0.13 0.85-0.27 1.71-0.41 2.58-0.36 2.58-0.36 2.58-0.28 6.31v2c0.35-0.76 0.7-1.52 1.07-2.31 4.4-9.2 9.51-16.7 16.9-23.7 1.08-1.14 1.08-1.14 2.19-2.31 10.7-10.2 23.3-19.2 38.6-19 7.25 0.79 14.4 3.46 20.4 7.52 2.63 2.11 2.63 2.11 5.77 1.83 1.25-1.75 1.25-1.75 2.31-3.94 2.31-3.91 2.31-3.91 5.69-5.25 4.41 0.28 6.64 1.93 9.81 4.88 1.82 3.54 1.44 6.34 1.19 10.3l-1 3h-2l2 4c0.08-0.55 0.15-1.1 0.23-1.66 0.35-2.51 0.71-5.02 1.08-7.53 0.12-0.86 0.24-1.73 0.36-2.62 0.69-4.63 1.3-8.44 4.33-12.2 3.58-1.24 5.26-1.32 8.75 0.19 2.42 1.94 3.17 2.94 4.25 5.81 0.48 11-2 22.5-3.72 33.4-0.26 1.76-0.26 1.76-0.54 3.55-0.25 1.58-0.25 1.58-0.5 3.19-0.24 2.89 0.04 5.11 0.76 7.9 0.61-0.93 1.21-1.86 1.84-2.82 5.69-8.69 11.6-17.2 18.2-25.2 0.43-0.52 0.86-1.04 1.3-1.58 8.57-10.3 21.3-22.6 35-24.8 3.78-0.12 6.58 0.37 9.75 2.37 1.63 1.99 1.63 1.99 3.12 4.31 0.75 1.14 0.75 1.14 1.51 2.3 3.22 5.62 3.92 10.7 4.49 17.1 0.09 0.85 0.18 1.69 0.27 2.57 0.56 5.92 0.71 11.8 0.61 17.7 2.39-0.38 3.66-0.62 5.29-2.47 0.37-0.62 0.74-1.25 1.12-1.89 0.43-0.7 0.85-1.39 1.29-2.11 0.45-0.75 0.9-1.51 1.36-2.28 10.3-16.6 23.1-32.4 42.6-38 5.15-0.82 8.86-0.04 13.4 2.76 11 11.6 11.4 26.9 11.4 42.1-0.01 1.32-0.01 2.64-0.01 4-0.13 16.4-2.18 32.7-4.37 48.9-0.21 1.58-0.21 1.58-0.42 3.19-1.14 8.48-2.48 16.2-6.58 23.8-4.24 0.25-7.98 0.31-12.1-0.94-2.69-2.86-2.16-4.77-2.07-8.57 0.2-3.89 0.66-7.73 1.19-11.6 0.11-0.84 0.22-1.68 0.33-2.55 0.34-2.66 0.69-5.32 1.05-7.97 2.15-16.2 3.74-32.2 3.75-48.6 0.01-1.07 0.02-2.14 0.03-3.25 0.02-7.37-0.79-14.3-2.22-21.6-10.8 1.98-18.4 10.3-24.4 19-3.69 5.55-7.16 11.2-10.6 17-0.41 0.67-0.82 1.35-1.23 2.04-10 16.7-17.8 34.8-24.8 52.9-4.23 10.7-4.23 10.7-9.24 13.1-4.17-0.09-8.75-2.06-11.8-5.06 0.16-9.78 2.01-19.6 3.44-29.2 0.76-5.2 1.52-10.4 2.25-15.6 0.2-1.41 0.41-2.81 0.61-4.21 1.44-9.77 2.02-19.3 1.96-29.1-0.01-2.22 0-4.45 0.01-6.68v-4.27c-0.01-1.27-0.01-2.54-0.01-3.85 0.05-3.11 0.05-3.11-2.26-5-16.7 9.15-26.2 24.2-35.8 40.1-1.18 1.92-2.38 3.81-3.59 5.7-5.4 8.64-9.93 17.8-14.5 26.9-0.51 1.04-1.03 2.07-1.56 3.14-1.96 3.93-3.91 7.85-5.85 11.8-0.77 1.54-1.54 3.09-2.3 4.63-0.67 1.34-1.34 2.68-2 4.03-3.72 7.48-3.72 7.48-7.03 8.67-4.58 0.08-7.51-1.65-11.4-3.94-0.09-4.47 0.14-8.61 1-13l-1 5h-2c0.09 1.55 0.09 1.55 0.19 3.12-0.21 4.2-0.81 6.43-3.19 9.88-3.18 1.37-4.78 1.06-8.12 0.19-2.88-1.19-2.88-1.19-5.88-3.19-1.87-10.8 1.29-23 3-33.8l0.87-5.58c0.4-2.6 0.8-5.19 1.22-7.79 0.63-3.42 0.63-3.42 0.91-6.88h-2c-0.36 1.04-0.36 1.04-0.72 2.1-1.51 3.43-3.52 6.33-5.72 9.34-0.44 0.61-0.88 1.22-1.34 1.84-1.4 1.92-2.81 3.82-4.22 5.72-0.44 0.59-0.87 1.18-1.32 1.79-5.23 7.05-10.8 13.6-17 19.8-0.86 0.88-0.86 0.88-1.74 1.76-8.69 8.54-19.7 15.4-32.1 15.8-7.31-0.44-12.7-2.96-17.8-8.17-1.38-2.81-1.38-2.81-2-5h-2c-0.08 0.91-0.16 1.81-0.25 2.75-0.87 3.75-1.62 5.05-4.75 7.25-4.07 0.8-5.73 0.15-9.38-1.88-1.88-1.75-2.55-2.67-2.93-5.23 0.14-6.32 0.81-12.4 1.81-18.6 1.29-8.08 1.29-8.08 1.5-16.2-1 1.29-1 1.29-2.02 2.61-2.46 3.16-4.94 6.3-7.43 9.44-0.99 1.25-1.98 2.49-2.96 3.74-9.45 12-21.7 24.2-37.6 26.2-7.6 0.25-14.9-2.42-20.6-7.42-3.09-3.46-4.74-7.31-6.36-11.6 0.03 0.57 0.07 1.14 0.11 1.72 0.19 5.61-0.39 9.35-3.11 14.3-3.77 2.51-5.53 2.53-10 2-4.5-2.17-4.5-2.17-6-5-0.09-2.71-0.09-2.71 0.22-5.89 0.17-1.75 0.17-1.75 0.35-3.53 0.67-5.55 1.5-11.1 2.37-16.6 1.51-10.1 2.62-20.2 3.31-30.4 0.12-1.74 0.12-1.74 0.24-3.53 2.11-18.2 2.11-18.2-1.87-35.3-1.54-2.01-1.54-2.01-4.31-2.25-9.03 1.36-15 7.28-21.3 13.5-0.66 0.64-1.31 1.29-1.99 1.95-13.8 14.6-24.4 34-33 52-1.6 3.23-3.22 6.45-4.84 9.67-1.79 3.56-3.55 7.13-5.24 10.7-0.34 0.72-0.69 1.43-1.04 2.17-0.65 1.36-1.29 2.73-1.91 4.1-2.29 4.75-4.83 7.25-8.97 10.3l-10-5c-0.2-5.51 0.33-10.3 1.56-15.7 0.56-2.57 0.56-2.57 0.44-6.3h-2c0.19 1.28 0.37 2.56 0.56 3.88 0.56 3.87 0.56 3.87-0.56 6.12h-2l-1 7h2v3h-2c-0.08 1.26-0.16 2.52-0.25 3.81-0.37 2.87-0.53 3.93-2.44 6.19-3.08 1.33-4.97 1.47-8.31 1-3.31-1.56-3.31-1.56-6-4-1.63-6.23-0.44-11.8 0.73-18.1 0.19-1.06 0.38-2.12 0.58-3.22 0.41-2.24 0.82-4.49 1.24-6.73 0.63-3.38 1.24-6.77 1.85-10.2 1.96-10.8 4.07-21.4 6.89-32 0.79-2.64 0.79-2.64 0.71-4.8l-2 5h-2c-0.09 0.67-0.18 1.34-0.27 2.03-0.93 3.8-2.63 7.08-4.42 10.5-0.73 1.44-1.47 2.87-2.2 4.31-0.36 0.7-0.72 1.41-1.1 2.13-1.36 2.69-2.65 5.41-3.95 8.12-6.63 13.3-16.8 32.3-30.6 38.9-5.58 1.62-10.4 1.76-15.7-0.86-10.3-6.7-12.9-19-15.5-30.3-1.12-5.55-1.7-11-1.94-16.6-0.15-1.1-0.15-1.1-0.31-2.23l-2-1c-0.1 1.01-0.19 2.02-0.29 3.05-0.59 4.08-2.12 7.48-4.09 11.1-0.35 0.65-0.7 1.3-1.06 1.96-7.78 13.8-19.5 26.4-34.6 31.9-0.73 0.35-1.45 0.7-2.2 1.06-8.47 2.84-19.6 2.41-27.8-1.16-11.9-6.04-16.7-14.7-21-26.9-5.07-19 1.34-42.6 10.8-59.1 7.81-12.3 17-21.9 29.8-28.8 0.71-0.38 1.42-0.76 2.15-1.15 9.97-5.14 19-6.35 29.8-3.35 5.52 1.82 10.4 4.11 14.4 8.38v2c0.99 0.33 1.98 0.66 3 1 0.56-1.89 0.56-1.89 1.12-3.81 1.24-3.27 1.79-4.12 4.69-6.31 3.93-1.08 5.59-0.72 9.19 1.12 3.41 3.42 3.39 6.32 3.44 11 0.02 1.04 0.02 1.04 0.04 2.1l0.06 4.47c0.04 3.97 0.13 7.93 0.22 11.9 0.02 0.8 0.04 1.61 0.05 2.43-1.16 36.5-1.16 36.5 10.2 69.1 2.7-0.18 3.79-0.79 5.71-2.7 4.25-5.67 7.97-11.5 11.4-17.7 0.56-0.99 1.12-1.99 1.69-3.02 10.9-19.8 20-40.3 28.2-61.4 0.3-0.77 0.61-1.54 0.92-2.34 0.57-1.45 1.14-2.91 1.69-4.36 1.75-4.43 3.7-9.23 8.22-11.4 3.16-0.2 6.11 0.17 9.25 0.61 1.23 0.16 2.46 0.32 3.73 0.48 3.16 0.76 4.44 1.09 6.21 3.77v3h2l-1 3 1 2c0.17-0.61 0.34-1.23 0.52-1.86 1.94-6.48 1.94-6.48 4.23-9.26 3.42-1.34 5.75-0.83 9.25 0.12 2.11 2.15 2.93 3.49 3.36 6.49-0.14 8.23-1.12 16.2-2.36 24.3-0.38 2.53-0.75 5.06-1.12 7.58-0.26 1.66-0.26 1.66-0.51 3.34-0.39 3.45-0.43 6.8-0.37 10.3 1.76-1.76 2.81-4 4.08-6.12 4.59-7.57 9.53-14.4 15.4-21 1.47-1.66 2.92-3.35 4.3-5.1 7.63-9.56 19.9-17.7 32.1-19.7 5.93-0.35 11 1.01 16.1 4 5.84 5.23 8.38 11.5 10 19 0.18 0.74 0.35 1.48 0.54 2.25 0.64 3.84 0.82 7.67 1.02 11.6 0.05 0.79 0.09 1.58 0.13 2.39 0.11 1.93 0.21 3.87 0.31 5.8h2c0.4-0.81 0.8-1.62 1.21-2.46 8.37-16.3 20.6-30.6 36.8-39.5 0.85-0.51 1.7-1.01 2.57-1.54 8.76-4.69 18.6-5.2 28-2.4 4.09 1.67 7.73 3.49 11.4 5.94 1.48-5.59 2.58-11.1 3.43-16.8 0.2-1.27 0.2-1.27 0.39-2.56 0.28-1.83 0.56-3.66 0.83-5.48 0.44-2.92 0.88-5.84 1.33-8.76 1.11-7.27 2.21-14.5 3.3-21.8 6.58-43.5 6.58-43.5 9.54-59.7 0.2-1.06 0.39-2.13 0.59-3.23 2.18-11.5 2.18-11.5 5.21-14 3.5-0.91 7-1 10.4 0.38z" fill="#000100"/>
        <path transform="translate(1219,179)" d="m0 0c3.07 3.22 3.92 5.26 4.38 9.69-0.21 4.41-1.17 8.69-2.14 13-0.08 0.77-0.16 1.53-0.24 2.32l2 2c0.39-0.5 0.78-0.99 1.18-1.5 10.7-13 26.2-20.5 42.8-22.5 8.95-0.41 19.9 1.99 27 7.56 2.23 2.54 3 4.04 3 7.44 4.5 0 5.19-0.56 8.62-3.19 13.4-9.71 28.8-15 45.4-13.8 8.56 1.46 14.1 6.34 19.4 13 3.25 6.27 3.62 15.1 3.62 22 0.4-0.55 0.8-1.09 1.21-1.65 12.9-17.2 29.7-28.7 51-33 8.96-1.14 18.3-1.15 26 4.15 4.43 3.74 8.15 8.01 11.8 12.5 0.71-1.3 0.71-1.3 1.44-2.62 4.81-7.09 12.8-10.5 20.9-12.7 16.2-3.08 32.6 0.22 46.8 8.89 6.96 5.01 13.6 10.3 15.5 19-0.86 3.66-2.62 5.14-5.56 7.38-3.3 0.83-5.12 0.48-8.1-1.14-3.07-2.01-6-4.12-8.83-6.45-10.1-8.21-21.5-9.54-34.1-8.65-5.65 0.68-10.3 2.96-14 7.24-1.17 2.86-1.17 2.86-1 6 7.06 9.41 20 14.1 30.3 19 12.3 5.96 21.8 13.4 28.6 25.3 2.9 9.52 3.05 18.9-1.5 27.9-7.88 9.32-18.5 13.5-30.4 14.8-15.9 1.32-29.7-4.16-42-14v-2h-2v-2c-0.61 0.56-1.22 1.11-1.84 1.69-7.22 6.28-14.6 10.6-23.3 14.5-1.59 0.71-3.15 1.46-4.71 2.22-6.9 2.89-13.8 3.02-21.2 3.11-1.01 0.02-2.01 0.04-3.05 0.06-12.6-0.11-23.1-4.88-32.1-13.7-4.82-5.33-4.82-5.33-4.82-7.84h-2c-0.25 0.59-0.51 1.18-0.77 1.79-5.25 9.4-19.6 14.9-29.5 17.9-5.79 1.5-11.3 1.82-17.3 1.76-1.52-0.01-1.52-0.01-3.06-0.03-7.14-0.16-13.1-0.84-19.4-4.41-1.43-0.78-1.43-0.78-2.88-1.58-11.3-6.66-17.2-15.3-20.9-27.9-0.44-1.85-0.86-3.7-1.25-5.56-0.18-0.8-0.36-1.61-0.54-2.44-2.44-15.4 3.66-34.8 12.6-47.4 1.22-1.51 2.47-2.99 3.77-4.42 0.39-0.56 0.79-1.12 1.19-1.7-0.49-1.49-0.49-1.49-1-3-2.16-1-2.16-1-4.75-1.62-0.86-0.24-1.72-0.48-2.61-0.73-12.7-3.12-23.3-1.14-34.6 5.6-23.1 14.4-30.6 55.5-37.4 79.7-0.34 1.19-0.34 1.19-0.69 2.39-0.43 1.5-0.85 3-1.27 4.5-0.5 1.73-1.08 3.44-1.67 5.14-2.33 1.16-3.79 1.17-6.38 1.19-1.15 0.02-1.15 0.02-2.33 0.04-2.52-0.25-4.07-1.05-6.29-2.23-0.26-7.62 0.74-14.7 2.01-22.2 0.32-1.94 0.64-3.89 0.96-5.84l1.02-6.15c1.05-6.32 2.08-12.6 3.11-19 0.34-2.08 0.68-4.16 1.03-6.24 1.72-10.6 3.38-21.1 4.93-31.7 0.19-1.29 0.38-2.57 0.58-3.9 0.9-6.2 1.63-12.4 2.01-18.6 0.5-3.28 1.39-5.57 4.04-7.62 3.5-1.05 5.81-0.69 9.31 0.31z" fill="#000100"/>
        <path transform="translate(1101,69)" d="m0 0c4.9 3.93 8.45 8.26 11 14 0 3.31-0.73 4.62-2.62 7.31-3.4 2.41-5.25 2.17-9.38 1.69-3.12-1.57-5.87-3.57-8.69-5.62-9.51-6.64-19-12.3-30.3-15.4-0.79-0.22-1.58-0.43-2.39-0.66-11.5-2.74-24.1-0.67-34.3 5.22-1.51 1.03-3.01 2.08-4.48 3.17-1.8 1.27-1.8 1.27-4.8 2.27-1.06 1.83-1.06 1.83-2 4-0.98 1.47-1.98 2.93-3 4.38-5.21 7.77-6.85 15.4-5.06 24.6 3.65 14.2 10.7 26 20.1 37.1 1.23 1.51 1.23 1.51 2.49 3.05 3.95 4.64 8.38 8.81 12.7 13.1 1.51 1.49 3.01 2.98 4.51 4.47 1.02 1.01 2.04 2.01 3.06 3.02 6.9 6.78 13.2 13.8 19.2 21.4 0.46 0.57 0.92 1.14 1.4 1.73 10.2 12.7 21.4 29.6 22.6 46.3h3c0.29-0.79 0.59-1.58 0.89-2.39 10.3-25.9 27.2-46.4 53.1-57.6 9.41-3.03 19.4-0.85 28 3.54 1.93 1.06 3.85 2.14 5.75 3.25 2.12 1.37 2.12 1.37 4.25 1.21 0.78-1.28 1.5-2.6 2.19-3.94 1.97-3.25 2.51-3.94 6.19-5.44 4.97 0.52 7.26 2.85 10.6 6.38l-2 1c0.35 0.71 0.69 1.41 1.05 2.14 1.11 3.34 0.85 5.19 0.14 8.61-0.29 1.45-0.29 1.45-0.58 2.92-0.61 2.33-0.61 2.33-1.61 3.33-0.18 1.88-0.32 3.76-0.42 5.65-0.53 7.41-1.6 14.7-2.79 22l-0.66 4.11c-0.45 2.84-0.91 5.68-1.37 8.52-0.58 3.61-1.16 7.23-1.74 10.8-0.55 3.49-1.11 6.98-1.67 10.5-0.21 1.28-0.41 2.56-0.62 3.88-1.17 7.19-2.39 14.4-3.73 21.5h-2c0.02 0.6 0.05 1.21 0.07 1.83 0.02 0.8 0.04 1.6 0.05 2.42 0.03 0.79 0.05 1.58 0.08 2.39-0.22 2.62-0.76 4.17-2.2 6.36-3.06 1.17-5.04 1.36-8.14 0.2-5.25-2.59-5.25-2.59-6.86-4.2 0.15-9.64 2.01-19.3 3.5-28.8 0.34-2.2 0.68-4.4 1.02-6.61 0.31-1.98 0.61-3.96 0.92-5.95 0.55-3.54 1.06-7.08 1.56-10.6-3.36 3.14-5.96 6.61-8.56 10.4-23.5 33.2-23.5 33.2-39.4 41.6-0.73 0.41-1.46 0.81-2.21 1.23-8.01 3.88-18.1 4.64-26.6 1.84-6.99-4-10.6-11.5-12.7-19-0.72-3.41-0.54-6.86-0.5-10.3 0-0.75 0.01-1.49 0.01-2.26 0.01-1.83 0.03-3.66 0.05-5.49h-2c-0.21 0.66-0.41 1.32-0.62 2-6.39 13.9-19.3 23.1-33.3 28.4-15.3 5.37-35.2 4.57-50.1-1.38-0.98-0.34-1.96-0.68-2.98-1.03-13-4.81-24.2-13.4-34-23-1.39-1.33-1.39-1.33-2.81-2.69-1.09-1.14-1.09-1.14-2.19-2.31-0.71-0.69-0.71-0.69-1.44-1.39-2.74-2.84-3.55-4.25-3.62-8.23 1.46-4.64 3.42-6.24 7.31-8.94 3.89-0.62 5.69 0.89 8.84 3.07 2.53 1.97 4.7 4.17 6.91 6.49 14.4 14.1 32.7 23.5 53.1 23.4 11.7-0.27 21-3.87 29.9-11.4 0.74-0.62 1.49-1.24 2.25-1.88 5.68-5.17 8.93-10.7 10.1-18.4 0.99-22.1-17.5-41.5-31.3-56.8-4.28-4.51-8.74-8.85-13.2-13.2-2.25-2.19-4.49-4.4-6.73-6.6-0.77-0.75-0.77-0.75-1.55-1.51-1.22-1.19-2.38-2.44-3.53-3.7v-2h-2c-1.8-2.02-3.47-4.05-5.12-6.19-0.5-0.63-0.99-1.26-1.49-1.91-7.31-9.57-13.3-19.5-17.4-30.9-0.39-1.08-0.79-2.16-1.19-3.27-5.31-16.2-3.71-30.3 3.94-45.4 9.01-15.5 24.4-25 41.6-29.6 23.8-4.46 47.4 5.02 66.7 18.3z" fill="#000100"/>
        <path transform="translate(333 184)" d="m0 0c1.94 1.4 3.74 2.73 5.39 4.47v2c0.99 0.33 1.98 0.66 3 1 0.56-1.89 0.56-1.89 1.13-3.81 1.23-3.27 1.78-4.12 4.68-6.32 3.93-1.07 5.59-0.71 9.19 1.13 3.41 3.42 3.39 6.32 3.44 11 0.02 1.03 0.02 1.03 0.04 2.09 0.03 1.5 0.05 2.99 0.06 4.48 0.04 3.97 0.13 7.93 0.22 11.9 0.02 0.8 0.04 1.6 0.05 2.43-1.16 36.5-1.16 36.5 10.2 69.1 2.7-0.19 3.79-0.79 5.71-2.7 4.25-5.67 7.97-11.5 11.4-17.7 0.83-1.49 0.83-1.49 1.68-3.02 10.9-19.8 20-40.3 28.2-61.4 0.45-1.16 0.45-1.16 0.92-2.34 0.57-1.45 1.14-2.91 1.69-4.36 1.75-4.43 3.7-9.23 8.22-11.4 3.16-0.2 6.11 0.17 9.25 0.61 1.85 0.24 1.85 0.24 3.73 0.48 3.16 0.76 4.44 1.09 6.21 3.77v3h2l-1 3c0.33 1.67 0.66 3.33 1 5l-1 2h-2c0.37 0.76 0.74 1.53 1.13 2.31 0.43 1.33 0.43 1.33 0.87 2.69-0.99 1.48-0.99 1.48-2 3l1 3-1 2h-2l1 5h-2l1 6h-2l1 5h-2l1 5h-2l1 6h-2l1 6h-2l1 6h-2l1 6h-2l1 5h-2l1 6h-2c0.08 0.61 0.17 1.23 0.25 1.86 0.16 1.21 0.16 1.21 0.31 2.45 0.11 0.8 0.21 1.6 0.32 2.43 0.12 2.26 0.12 2.26-0.88 5.26h-2c0.19 1.28 0.37 2.56 0.56 3.87 0.57 3.88 0.57 3.88-0.56 6.13h-2l-1 7h2v3h-2c-0.08 1.26-0.16 2.52-0.25 3.81-0.37 2.87-0.53 3.93-2.44 6.19-3.08 1.33-4.97 1.47-8.31 1-3.31-1.56-3.31-1.56-6-4-1.63-6.23-0.44-11.8 0.73-18.1 0.19-1.06 0.38-2.12 0.58-3.22 0.41-2.24 0.82-4.49 1.24-6.73 0.63-3.38 1.24-6.77 1.85-10.2 1.96-10.8 4.07-21.4 6.89-32 0.79-2.64 0.79-2.64 0.71-4.8l-2 5h-2c-0.09 0.67-0.18 1.34-0.27 2.03-0.93 3.8-2.63 7.08-4.42 10.5-0.73 1.44-1.47 2.87-2.2 4.31-0.36 0.7-0.72 1.41-1.1 2.13-1.36 2.69-2.65 5.41-3.95 8.12-6.63 13.2-16.8 32.3-30.6 38.9-5.58 1.62-10.4 1.76-15.7-0.86-10.3-6.7-12.9-19-15.5-30.3-1.12-5.54-1.69-11-1.94-16.6-0.15-1.1-0.15-1.1-0.31-2.23l-2-1c-0.09 1.01-0.19 2.01-0.29 3.05-0.59 4.08-2.12 7.48-4.08 11.1-0.36 0.65-0.71 1.3-1.07 1.96-7.78 13.8-19.5 26.4-34.6 31.9-0.73 0.35-1.45 0.7-2.2 1.06-8.47 2.84-19.6 2.41-27.8-1.16-11.9-6.04-16.7-14.7-21-26.9-5.07-19 1.34-42.6 10.8-59.1 7.81-12.3 17-21.9 29.8-28.8 0.71-0.38 1.42-0.76 2.15-1.15 12.8-6.62 26.2-6.92 38.9 0.56z" fill="#000100"/>
        <path transform="translate(261 63.9)" d="m0 0c4.31 3.18 7.85 6.25 10.1 11.1 0.18 4.38-0.71 5.68-3.69 8.93-3.31 2.07-3.31 2.07-6.11 1.96-3.79-1.06-6.6-2.9-9.77-5.14-11.6-7.85-24.8-12.8-39-10.3-5.53 1.46-9.83 3.79-14.4 7.13-2 1.41-2 1.41-4.14 2.34-2.37 1.35-2.74 2.62-3.86 5.07-1.15 1.34-2.35 2.65-3.57 3.93-9.71 10.8-16.7 23.3-23.4 36.1-0.33 0.61-0.65 1.23-0.98 1.86-19.5 38-35.7 96.4-23.2 139 1.54 4.32 3.19 7.92 6.21 11.4 0.7 0.82 1.4 1.65 2.12 2.5 4.63 2.41 8.79 2.5 13.9 1.5 3.78-1.84 6.81-4.28 10-7 1.21-1.02 1.21-1.02 2.46-2.05 24.7-21.3 42.9-50.3 59.4-78 8.25-13.9 8.25-13.9 12.2-14.9 3 0 3 0 6 1 3.45 3.72 4.3 6.48 4.19 11.5-0.42 5.48-1.44 10.9-2.39 16.3l-0.69 4.05c-0.61 3.59-1.23 7.18-1.85 10.8-0.65 3.7-1.28 7.41-1.91 11.1-0.76 4.4-1.51 8.79-2.27 13.2-1.37 7.94-2.72 15.9-4.04 23.8-0.4 2.36-0.79 4.73-1.19 7.09-0.23 1.39-0.46 2.79-0.69 4.18-2.73 16.7-2.73 16.7-5.16 22-3.77 2.51-5.53 2.53-10 2-3.44-2-3.44-2-6-5-0.5-6.45 0.6-12.5 1.75-18.8 0.26-1.53 0.26-1.53 0.53-3.09 0.57-3.23 1.14-6.46 1.72-9.69 0.57-3.23 1.14-6.47 1.71-9.71 0.35-2.01 0.71-4.02 1.07-6.02 0.8-4.61 1.44-8.95 1.22-13.6-3.63 3.36-6.35 7.11-9.19 11.1-4.57 6.34-9.48 12.2-14.8 17.9-1.15 1.33-2.3 2.66-3.44 4-11.6 13.2-24.7 26.2-42.8 28.4-9.53 0.46-16.1-2.41-23.5-8.22-12.2-11.4-15.4-30.2-16.2-46.2-1.08-54 13.5-105 41-151 0.95-1.64 0.95-1.64 1.93-3.31 11.5-19 27.5-35.3 49.1-41.7 18.3-4.34 36.7 2.99 51.9 12.9z" fill="#000100"/>
        <path transform="translate(760,181)" d="m0 0c2.47 2.96 3.89 5.02 4.31 8.88-0.1 1.07-0.2 2.14-0.31 3.24-0.18 1.94-0.18 1.94-0.37 3.91-0.94 7.8-2.12 15.6-3.34 23.3-0.18 1.18-0.36 2.35-0.55 3.55-0.16 1.06-0.33 2.11-0.5 3.19-0.24 2.89 0.04 5.11 0.76 7.9 0.61-0.93 1.21-1.86 1.84-2.82 5.69-8.69 11.6-17.2 18.2-25.2 0.43-0.52 0.86-1.04 1.3-1.58 8.57-10.3 21.3-22.6 35-24.8 3.78-0.12 6.58 0.37 9.75 2.37 1.63 1.99 1.63 1.99 3.12 4.31 0.5 0.76 1 1.52 1.51 2.3 3.22 5.62 3.92 10.7 4.49 17.1 0.13 1.27 0.13 1.27 0.27 2.57 0.56 5.92 0.71 11.8 0.61 17.7 2.39-0.38 3.66-0.62 5.29-2.47 0.37-0.62 0.74-1.25 1.12-1.89 0.43-0.7 0.85-1.39 1.29-2.11 0.45-0.75 0.9-1.51 1.36-2.28 10.3-16.6 23.1-32.4 42.6-38 5.15-0.82 8.86-0.04 13.4 2.76 11 11.6 11.4 26.9 11.4 42.1-0.01 1.98-0.01 1.98-0.01 4-0.13 16.4-2.18 32.7-4.37 48.9-0.14 1.05-0.28 2.11-0.42 3.19-1.14 8.48-2.48 16.2-6.58 23.8-4.24 0.25-7.98 0.31-12.1-0.94-2.69-2.86-2.16-4.77-2.07-8.57 0.2-3.89 0.66-7.73 1.19-11.6 0.11-0.84 0.22-1.68 0.33-2.55 0.34-2.66 0.69-5.32 1.05-7.97 2.15-16.2 3.74-32.2 3.75-48.6 0.01-1.07 0.02-2.14 0.03-3.25 0.02-7.37-0.79-14.3-2.22-21.6-10.8 1.98-18.4 10.3-24.4 19-3.69 5.55-7.16 11.2-10.6 17-0.61 1.01-0.61 1.01-1.23 2.04-10 16.7-17.8 34.8-24.8 52.9-4.23 10.7-4.23 10.7-9.24 13.1-4.17-0.09-8.75-2.06-11.8-5.06 0.16-9.78 2.01-19.6 3.44-29.2 0.76-5.2 1.52-10.4 2.25-15.6 0.2-1.41 0.41-2.81 0.61-4.21 1.44-9.77 2.02-19.3 1.96-29.1-0.01-2.22 0-4.45 0.01-6.68v-4.27c-0.01-1.9-0.01-1.9-0.01-3.85 0.05-3.11 0.05-3.11-2.26-5-16.7 9.15-26.2 24.2-35.8 40.1-1.18 1.92-2.38 3.81-3.59 5.7-5.4 8.64-9.93 17.8-14.5 26.9-0.51 1.04-1.03 2.07-1.56 3.14-1.96 3.93-3.91 7.85-5.85 11.8-0.77 1.54-1.54 3.09-2.3 4.63-0.67 1.34-1.34 2.68-2 4.03-3.72 7.48-3.72 7.48-7.03 8.67-4.58 0.08-7.51-1.65-11.4-3.94-0.23-5.25 0.44-10 1.46-15.2 0.62-3.27 1.07-6.55 1.54-9.84 0.35-2.33 0.71-4.66 1.08-6.99 0.1-0.67 0.2-1.33 0.31-2.01 0.22-1.43 0.44-2.85 0.66-4.28 0.36-2.28 0.71-4.55 1.06-6.83l2.64-17 1.86-12c0.48-3.09 0.96-6.19 1.45-9.28 0.99-6.39 1.98-12.8 2.86-19.2 0.13-0.94 0.26-1.87 0.39-2.84 0.23-1.63 0.44-3.27 0.65-4.91 0.58-4.2 1.48-7.28 4.04-10.7 3.26-1.63 5.55-0.89 9 0z" fill="#000100"/>
        <path transform="translate(1101,69)" d="m0 0c4.9 3.93 8.45 8.26 11 14 0 3.31-0.73 4.62-2.62 7.31-3.4 2.41-5.25 2.17-9.38 1.69-3.12-1.57-5.87-3.57-8.69-5.62-9.51-6.64-19-12.3-30.3-15.4-0.79-0.22-1.58-0.43-2.39-0.66-11.5-2.74-24.1-0.67-34.3 5.22-1.51 1.03-3.01 2.08-4.48 3.17-1.8 1.27-1.8 1.27-4.8 2.27-1.06 1.83-1.06 1.83-2 4-0.98 1.47-1.98 2.93-3 4.38-5.21 7.77-6.85 15.4-5.06 24.6 3.65 14.2 10.7 26 20.1 37.1 1.23 1.51 1.23 1.51 2.49 3.05 3.95 4.64 8.38 8.81 12.7 13.1 1.51 1.49 3.01 2.98 4.51 4.47 1.02 1.01 2.04 2.01 3.06 3.02 6.9 6.78 13.2 13.8 19.2 21.4 0.46 0.57 0.92 1.14 1.4 1.73 10.2 12.7 21.4 29.6 22.6 46.3h2c0.6 8.54-1.61 15.9-4 24-0.96 0.18-0.96 0.18-1.95 0.37-0.67 0.21-1.35 0.42-2.05 0.63-0.7 1.65-1.36 3.32-2 5-9.2 14.4-22.9 23.8-39.6 27.6-14.2 1.73-29 1.75-42.4-3.58-0.98-0.34-1.96-0.68-2.98-1.03-13-4.81-24.2-13.4-34-23-1.39-1.33-1.39-1.33-2.81-2.69-1.09-1.14-1.09-1.14-2.19-2.31-0.71-0.69-0.71-0.69-1.44-1.39-2.74-2.84-3.55-4.25-3.62-8.23 1.46-4.64 3.42-6.24 7.31-8.94 3.89-0.62 5.69 0.89 8.84 3.07 2.53 1.97 4.7 4.17 6.91 6.49 14.4 14.1 32.7 23.5 53.1 23.4 11.7-0.27 21-3.87 29.9-11.4 0.74-0.62 1.49-1.24 2.25-1.88 5.68-5.17 8.93-10.7 10.1-18.4 0.99-22.1-17.5-41.5-31.3-56.8-4.28-4.51-8.74-8.85-13.2-13.2-2.25-2.19-4.49-4.4-6.73-6.6-0.77-0.75-0.77-0.75-1.55-1.51-1.22-1.19-2.38-2.44-3.53-3.7v-2h-2c-1.8-2.02-3.47-4.05-5.12-6.19-0.5-0.63-0.99-1.26-1.49-1.91-7.31-9.57-13.3-19.5-17.4-30.9-0.39-1.08-0.79-2.16-1.19-3.27-5.31-16.2-3.71-30.3 3.94-45.4 9.01-15.5 24.4-25 41.6-29.6 23.8-4.46 47.4 5.02 66.7 18.3z" fill="#000100"/>
        <path transform="translate(1458,220)" d="m0 0h3c0.68 1.61 0.68 1.61 1.38 3.25 0.27 0.64 0.55 1.28 0.83 1.93 0.6 1.37 1.17 2.75 1.73 4.13 1.37 2.18 2.76 2.57 5.06 3.69 1.24 0.84 2.47 1.69 3.69 2.56 4.39 2.96 8.95 5.47 13.6 7.94 0.74 0.39 1.48 0.78 2.24 1.18 4.27 2.23 8.59 4.33 13 6.38 8.11 4.04 14.8 9.52 18.5 17.9 0.69 2.56 0.69 2.56 0 5-3.85 4.32-8.23 7.58-14.1 8.23-10.1 0.58-19.4 0.95-27.9-5.23-1.48-0.99-1.48-0.99-3-2v-2c-0.57-0.22-1.13-0.44-1.71-0.66-3.03-1.78-4.69-4.02-6.85-6.78-3.42-4.56-3.42-4.56-7.44-8.56-3.02 0.13-5.15 0.49-7.75 2.06-1.53 2.09-1.53 2.09-1.87 5.69-1.3 5.8-5.63 8.16-10.4 11.2-0.79 0.54-1.58 1.08-2.39 1.63-9.17 5.91-18 8.7-28.9 8.87-0.74 0.02-1.49 0.04-2.26 0.06-8.15-0.1-14-3.61-19.9-9-0.84-0.74-1.69-1.48-2.56-2.24-2.18-2.52-2.68-4.05-3-7.32 4.77-2.18 9.22-3.62 14.4-4.75 19.7-4.68 37.2-13.9 51.6-28.2 0.88-0.87 1.76-1.74 2.67-2.64 3.78-3.83 6.57-7.23 8.33-12.4z" fill="#FDFDFD"/>
        <path transform="translate(322 199)" d="m0 0c4.71 4.48 7.64 9.76 7.84 16.3 0.51 22-3.72 40.6-19.3 57.2-9.23 8.3-15.2 10.9-27.5 10.6-5.34-0.45-8.39-2.46-12-6.43-1.89-2.72-2.94-4.88-3.5-8.15-0.2-1.12-0.41-2.23-0.62-3.38-1.94-18.7 4.43-37.3 16.1-51.9 9.6-10.3 24.6-20.7 39-14.1z" fill="#FDFDFD"/>
        <path transform="translate(609,198)" d="m0 0c2.96 1.35 5.44 3.01 8 5 1.27 0.9 1.27 0.9 2.56 1.81 1.85 2.81 1.43 4.64 0.95 7.87-0.95 4.3-2.68 8.24-4.45 12.3-0.6 1.37-0.6 1.37-1.21 2.78-9.73 21.8-24.2 46.7-45.8 58.3-6.18 1.43-6.18 1.43-10.3-0.75-4.02-3.95-4.48-8.83-4.69-14.2 0.82-22.4 10.9-41.3 25-58 0.67-0.8 1.34-1.6 2.03-2.42 6.63-7.25 17.6-15.4 28-12.6z" fill="#FDFDFD"/>
        <path transform="translate(1165 203)" d="m0 0c4.27 2 7.81 4.48 10.7 8.28-0.57 5.62-3.52 10.2-6.19 15.1-0.53 0.97-1.06 1.93-1.6 2.93-7.98 14.3-17.5 27.7-28.2 40-0.75 0.92-1.5 1.84-2.28 2.78-4.47 5.27-9.12 9.58-14.8 13.4-0.56 0.39-1.12 0.78-1.7 1.18-4.62 2.91-7.89 3.07-13.2 2.64-2-1-2-1-2.6-2.58-3.57-21.6 5.23-41.5 16.9-59.2 7.02-9.71 14.9-17.7 25.7-23.2 0.65-0.38 1.29-0.75 1.96-1.13 4.7-2.01 10.5-1.65 15.4-0.15z" fill="#FDFDFD"/>
        <path transform="translate(707 203)" d="m0 0c3.87 2.08 7.91 4.36 10.4 8.02-0.41 4.06-1.93 7.07-3.91 10.6-0.9 1.61-0.9 1.61-1.81 3.24-0.63 1.1-1.26 2.21-1.9 3.35-0.91 1.63-0.91 1.63-1.84 3.29-3.82 6.79-7.94 13.2-12.5 19.5-0.49 0.69-0.99 1.37-1.49 2.08-10.2 14.1-20.6 28-36.5 35.9-5.21 0.5-5.21 0.5-8 0-3.16-3.37-3.99-7.47-4-12 1.95-25.1 14.3-48.4 32.3-65.7 3.63-3.09 7.37-5.31 11.7-7.28 0.96-0.54 0.96-0.54 1.93-1.09 4.87-2.14 10.8-1.79 15.6 0.07z" fill="#FDFDFD"/>
        <path transform="translate(1371,219)" d="m0 0c1 3 1 3-0.33 5.83-0.95 1.69-0.95 1.69-1.92 3.42-6.93 13-7.58 26.4-5.75 40.8-1.02 0.4-2.04 0.81-3.09 1.23-3.8 1.63-7.13 3.81-10.5 6.15-12.6 8.21-24.4 11.6-39.4 9.62-7.88-2.04-13.5-7.38-18-14-0.84-2.15-0.84-2.15-1-4 2.25-2.25 3.15-2.43 6.19-3.04 1.28-0.28 1.28-0.28 2.59-0.56 0.92-0.19 1.84-0.39 2.78-0.59 24.1-5.49 47-17 62.4-36.8 0.52-0.5 1.03-0.99 1.56-1.5 1.88-1.96 3.11-4.15 4.44-6.5z" fill="#FDFDFD"/>
        <path transform="translate(1440,199)" d="m0 0c3.43 2.48 4.75 4.02 5.81 8.12-1.24 5.95-4.78 10.4-8.81 14.9h-2c-0.49 1.49-0.49 1.49-1 3-14.8 12.3-33.8 21.3-53 22-1.83-5.49 1.71-10.9 4-16 5.86-10.8 14.1-19.4 25-25 0.62-0.37 1.24-0.73 1.88-1.11 8.2-4.61 18.9-8.01 28.1-5.89z" fill="#FDFDFD"/>
        <path transform="translate(1354 201)" d="m0 0c2.1 3.19 2.53 5.01 1.77 8.77-5.44 14.3-22.4 23.7-35.3 29.9-9.22 3.97-18.4 6.79-28.5 7.25-1.94-4.97 0.59-9.04 2.49-13.7 7.33-16.1 20.5-25.9 36.6-32.3 7.87-2.84 15.5-4.99 23 0.02z" fill="#FDFDFD"/>
        <path transform="translate(453,111)" d="m0 0c3.84 2.91 5.72 6.03 7.06 10.6-0.08 4.54-1.59 6.58-4.37 9.99-2.83 2.33-5.64 1.92-9.17 1.8-4.21-0.69-5.76-2.16-8.52-5.41-1.24-3.09-1.36-4.89-0.33-8.05 1.48-3.31 2.89-5.57 5.64-7.95 3.64-1.35 5.84-1.68 9.69-1z" fill="#000100"/>
        <path transform="translate(744,206)" d="m0 0h1c-0.56 9.08-1.63 18-3.07 27-0.29 1.9-0.29 1.9-0.6 3.84-0.52 3.33-1.04 6.65-1.57 9.98-0.54 3.41-1.07 6.82-1.61 10.2-1.04 6.66-2.09 13.3-3.15 20l-3-3 1-3v-3.62c0-3.38 0-3.38 1-4.38 0.04-1.67 0.04-3.33 0-5h2l-1-6h2l-1-6h2l-1-6h2c-0.19-0.97-0.37-1.94-0.56-2.94-0.15-1.01-0.29-2.02-0.44-3.06l1-1c0.04-2 0.04-4 0-6h2c-0.19-1.13-0.37-2.27-0.56-3.44-0.15-1.17-0.29-2.35-0.44-3.56l1-1v-2.75c0-2.93 0.33-5.41 1-8.25h2v-2z" fill="#F4F4F4"/>
        <path transform="translate(446,209)" d="m0 0h1c-0.55 8.6-1.73 17-3.29 25.4-0.22 1.23-0.44 2.45-0.66 3.72-0.7 3.87-1.41 7.74-2.11 11.6-0.48 2.64-0.96 5.29-1.43 7.93l-3.51 19.3-2-1c-0.03-1.48-0.05-2.96-0.06-4.44-0.02-1.23-0.02-1.23-0.04-2.49 0.1-2.07 0.1-2.07 1.1-3.07v-2.25c0-2.73 0.39-5.1 1-7.75h2l-1-6h2l-1-6h2l-1-6h2c-0.19-0.89-0.37-1.77-0.56-2.69-0.42-3.16-0.25-5.26 0.56-8.31h2l-1-5h2l-1-6h2l-1-5h2v-2z" fill="#F4F4F4"/>
        <path transform="translate(1204,195)" d="m0 0h1c-0.54 11.1-2.11 22-3.91 33-0.28 1.8-0.57 3.59-0.86 5.39-0.75 4.68-1.51 9.37-2.27 14l-3.63 22.5c-0.41 2.6-0.84 5.2-1.26 7.8-0.26 1.62-0.52 3.23-0.78 4.84-0.12 0.75-0.24 1.51-0.37 2.28-0.64 4.08-1.14 8.13-1.48 12.2-0.14 1.29-0.29 2.58-0.44 3.91-0.99 0.5-0.99 0.5-2 1-1.35-2.71-1.07-5.01-1-8h2c0.05-0.63 0.09-1.25 0.14-1.9 0.64-7.9 1.82-15.6 3.11-23.5 0.22-1.37 0.44-2.73 0.66-4.09 0.93-5.73 1.86-11.5 2.8-17.2 0.57-3.53 1.14-7.05 1.71-10.6 0.32-1.96 0.64-3.92 0.97-5.88 1.33-8.31 2.15-16.5 2.61-24.9h2l1-11z" fill="#F4F4F4"/>
        <path transform="translate(434,277)" d="m0 0h1c-0.49 6.85-1.36 13.3-3 20-0.99-0.33-1.98-0.66-3-1l1-7h2v-10h2v-2z" fill="#F4F4F4"/>
        <path transform="translate(730,289)" d="m0 0h2c1.35 4.05 0.62 6.79 0 11l-4-2 1-4h2v-2l-2-1 1-2z" fill="#F9F9F9"/>
        </svg>
    